<?xml version="1.0" standalone="no"?><!DOCTYPE svg PUBLIC "-//W3C//DTD SVG 1.1//EN" "http://www.w3.org/Graphics/SVG/1.1/DTD/svg11.dtd"><svg t="1592149618893" class="icon" viewBox="0 0 1024 1024" version="1.1" xmlns="http://www.w3.org/2000/svg" p-id="7063" width="64" height="64" xmlns:xlink="http://www.w3.org/1999/xlink"><defs><style type="text/css"></style></defs><path d="M273.066667 935.253333a257.706667 30.72 0 1 0 515.413333 0 257.706667 30.72 0 1 0-515.413333 0Z" fill="#DAE9FF" p-id="7064"></path><path d="M563.2 955.733333c179.2 0 327.68-162.133333 327.68-341.333333C711.68 614.4 563.2 776.533333 563.2 955.733333zM238.933333 631.466667c0 179.2 145.066667 324.266667 324.266667 324.266666 0-179.2-145.066667-324.266667-324.266667-324.266666z" fill="#DAE9FF" p-id="7065"></path><path d="M529.066667 938.666667c179.2 0 324.266667-145.066667 324.266666-324.266667-179.2 0-324.266667 145.066667-324.266666 324.266667zM204.8 614.4c0 179.2 145.066667 324.266667 324.266667 324.266667 0-179.2-145.066667-324.266667-324.266667-324.266667z" fill="#3889FF" p-id="7066"></path><path d="M273.066667 508.586667c0 59.733333 49.493333 109.226667 109.226666 109.226666 23.893333 0 44.373333-6.826667 63.146667-18.773333l-1.706667 8.533333c0 59.733333 49.493333 109.226667 109.226667 109.226667 61.44 0 109.226667-49.493333 109.226667-109.226667v-8.533333c17.066667 11.946667 39.253333 18.773333 63.146666 18.773333 61.44 0 109.226667-49.493333 109.226667-109.226666 0-44.373333-25.6-81.92-63.146667-98.986667 37.546667-17.066667 63.146667-54.613333 63.146667-98.986667 0-61.44-49.493333-109.226667-109.226667-109.226666-23.893333 0-44.373333 6.826667-63.146666 18.773333v-8.533333c0-59.733333-49.493333-109.226667-109.226667-109.226667-61.44 0-109.226667 49.493333-109.226667 109.226667l1.706667 8.533333c-17.066667-11.946667-39.253333-18.773333-63.146667-18.773333-61.44 0-109.226667 49.493333-109.226666 109.226666 0 44.373333 25.6 81.92 63.146666 98.986667-37.546667 17.066667-63.146667 54.613333-63.146666 98.986667zM554.666667 307.2c61.44 0 110.933333 49.493333 110.933333 110.933333S616.106667 529.066667 554.666667 529.066667 443.733333 479.573333 443.733333 418.133333s49.493333-110.933333 110.933334-110.933333z" fill="#FFD3D7" p-id="7067"></path><path d="M238.933333 491.52c0 59.733333 49.493333 109.226667 109.226667 109.226667 23.893333 0 44.373333-6.826667 63.146667-18.773334l-1.706667 8.533334c0 59.733333 49.493333 109.226667 109.226667 109.226666 61.44 0 109.226667-49.493333 109.226666-109.226666v-8.533334c17.066667 11.946667 39.253333 18.773333 63.146667 18.773334 61.44 0 109.226667-49.493333 109.226667-109.226667 0-44.373333-25.6-81.92-63.146667-98.986667 37.546667-17.066667 63.146667-54.613333 63.146667-98.986666 0-61.44-49.493333-109.226667-109.226667-109.226667-23.893333 0-44.373333 6.826667-63.146667 18.773333v-8.533333c0-59.733333-49.493333-109.226667-109.226666-109.226667-61.44 0-109.226667 49.493333-109.226667 109.226667l1.706667 8.533333c-17.066667-11.946667-39.253333-18.773333-63.146667-18.773333-61.44 0-109.226667 49.493333-109.226667 109.226667 0 44.373333 25.6 81.92 63.146667 98.986666-37.546667 17.066667-63.146667 54.613333-63.146667 98.986667zM520.533333 290.133333c61.44 0 110.933333 49.493333 110.933334 110.933334S581.973333 512 520.533333 512 409.6 462.506667 409.6 401.066667s49.493333-110.933333 110.933333-110.933334z" fill="#FB560A" p-id="7068"></path></svg>